<svg width="334" height="24" viewBox="0 0 334 24" fill="none" xmlns="http://www.w3.org/2000/svg">
<mask id="mask0_363_13856" style="mask-type:luminance" maskUnits="userSpaceOnUse" x="0" y="0" width="39" height="24">
<path d="M38.7305 0H0.730469V24H38.7305V0Z" fill="white"/>
</mask>
<g mask="url(#mask0_363_13856)">
<path opacity="0.07" d="M35.7305 0H3.73047C2.03047 0 0.730469 1.3 0.730469 3V21C0.730469 22.7 2.13047 24 3.73047 24H35.7305C37.4305 24 38.7305 22.7 38.7305 21V3C38.7305 1.3 37.3305 0 35.7305 0Z" fill="black"/>
<path d="M35.7305 1C36.8305 1 37.7305 1.9 37.7305 3V21C37.7305 22.1 36.8305 23 35.7305 23H3.73047C2.63047 23 1.73047 22.1 1.73047 21V3C1.73047 1.9 2.63047 1 3.73047 1H35.7305Z" fill="white"/>
<mask id="mask1_363_13856" style="mask-type:alpha" maskUnits="userSpaceOnUse" x="3" y="8" width="7" height="6">
<path d="M6.52781 8.34084C6.46886 8.33997 6.41089 8.35599 6.36074 8.387C6.3106 8.41801 6.27037 8.46271 6.24481 8.51584L3.75781 13.6078H4.63981L5.08481 12.7478H7.62281L8.03681 13.6078H9.35781L6.89081 8.33984H6.52881L6.52781 8.34084ZM6.37781 10.0528L7.45881 12.3278H5.25381L6.37781 10.0528Z" fill="white"/>
</mask>
<g mask="url(#mask1_363_13856)">
<path fill-rule="evenodd" clip-rule="evenodd" d="M3.40625 13.9598H9.71125V7.98779H3.40625V13.9598Z" fill="#393632"/>
</g>
<mask id="mask2_363_13856" style="mask-type:alpha" maskUnits="userSpaceOnUse" x="9" y="8" width="3" height="6">
<path d="M10.0933 8.34084C10.032 8.34082 9.9731 8.36488 9.92933 8.40784C9.90786 8.4286 9.89077 8.45346 9.87909 8.48094C9.86741 8.50843 9.86137 8.53798 9.86133 8.56784V13.6078H11.0574V8.33984L10.0933 8.34084Z" fill="white"/>
</mask>
<g mask="url(#mask2_363_13856)">
<path fill-rule="evenodd" clip-rule="evenodd" d="M9.50977 13.9598H11.4098V7.98779H9.50977V13.9598Z" fill="#393632"/>
</g>
<mask id="mask3_363_13856" style="mask-type:alpha" maskUnits="userSpaceOnUse" x="12" y="9" width="2" height="5">
<path d="M12.3374 9.72412C12.2765 9.72399 12.218 9.74768 12.1744 9.79012C12.153 9.81093 12.1361 9.83582 12.1246 9.86331C12.1131 9.8908 12.1072 9.92032 12.1074 9.95012V13.6081H13.3104V9.72412H12.3374Z" fill="white"/>
</mask>
<g mask="url(#mask3_363_13856)">
<path fill-rule="evenodd" clip-rule="evenodd" d="M11.7539 13.9601H13.6629V9.37109H11.7539V13.9601Z" fill="#393632"/>
</g>
<path fill-rule="evenodd" clip-rule="evenodd" d="M16.0024 9.75319C15.8312 9.82132 15.6709 9.91395 15.5264 10.0282V9.72419H14.5494C14.4881 9.72469 14.4294 9.74867 14.3854 9.79119C14.3638 9.81193 14.3466 9.83676 14.3347 9.86424C14.3229 9.89171 14.3166 9.92127 14.3164 9.95119V15.1362H15.5264V13.5792C15.6364 13.6232 15.7484 13.6492 15.8644 13.6632C15.9794 13.6732 16.1164 13.6802 16.2744 13.6802C16.5654 13.6846 16.8542 13.6284 17.1224 13.5152C17.3744 13.4032 17.5884 13.2502 17.7664 13.0522C17.9483 12.8492 18.0877 12.6119 18.1764 12.3542C18.2704 12.0842 18.3174 11.7912 18.3174 11.4722C18.3174 11.2242 18.2774 10.9892 18.1974 10.7692C18.1215 10.5554 18.0055 10.3582 17.8554 10.1882C17.7025 10.0146 17.5139 9.87611 17.3024 9.78237C17.0909 9.68863 16.8617 9.64183 16.6304 9.64519C16.3904 9.64519 16.1814 9.68019 16.0024 9.75319ZM15.9694 13.1532C15.8816 13.1214 15.801 13.0724 15.7324 13.0092C15.6661 12.9476 15.6136 12.8728 15.5781 12.7896C15.5426 12.7064 15.525 12.6166 15.5264 12.5262V10.8142C15.5764 10.7492 15.6304 10.6872 15.6894 10.6272C15.7494 10.5672 15.8114 10.5172 15.8774 10.4732C15.9411 10.4304 16.01 10.3958 16.0824 10.3702C16.1537 10.3451 16.2287 10.3322 16.3044 10.3322C16.4104 10.3322 16.5074 10.3642 16.5974 10.4282C16.6854 10.4932 16.7624 10.5882 16.8264 10.7162C16.8904 10.8442 16.9404 11.0032 16.9764 11.1922C17.0124 11.3812 17.0294 11.6022 17.0294 11.8522C17.0294 12.0482 17.0094 12.2292 16.9694 12.3962C16.9352 12.5457 16.8803 12.6898 16.8064 12.8242C16.7476 12.9335 16.6661 13.029 16.5674 13.1042C16.4839 13.1694 16.3813 13.2056 16.2754 13.2072C16.171 13.2081 16.0673 13.1892 15.9694 13.1532Z" fill="#393632"/>
<mask id="mask4_363_13856" style="mask-type:alpha" maskUnits="userSpaceOnUse" x="18" y="9" width="5" height="5">
<path d="M19.1321 9.83115C19.1641 9.92915 19.2081 10.1021 19.2391 10.2031C20.8191 9.92815 21.1231 10.1411 21.1231 10.8091V11.0191C20.8351 10.9991 20.4951 10.9501 20.2161 10.9461C19.1361 10.9291 18.7441 11.7711 18.7441 12.3031C18.7441 13.2331 19.6481 14.0941 21.1231 13.4581V13.6061H22.3571V10.7711C22.3571 10.2211 21.8721 9.88915 21.4381 9.76815C21.1284 9.68303 20.8084 9.64097 20.4871 9.64315C20.0294 9.64918 19.5742 9.71234 19.1321 9.83115ZM19.7181 12.3211C19.7181 11.8711 20.0931 11.5271 20.5531 11.4931C20.8441 11.4721 21.0201 11.5231 21.1231 11.5871V12.9181C20.9678 13.0612 20.7643 13.1404 20.5531 13.1401C20.4446 13.1413 20.3369 13.1211 20.2361 13.0806C20.1354 13.0402 20.0436 12.9802 19.9661 12.9042C19.8885 12.8283 19.8267 12.7378 19.7842 12.6379C19.7416 12.538 19.7192 12.4297 19.7181 12.3211Z" fill="white"/>
</mask>
<g mask="url(#mask4_363_13856)">
<path fill-rule="evenodd" clip-rule="evenodd" d="M18.3926 14.03H22.7096V9.29004H18.3926V14.03Z" fill="#393632"/>
</g>
<path fill-rule="evenodd" clip-rule="evenodd" d="M26.4976 9.65186C26.4476 9.65186 26.3976 9.66486 26.3516 9.69186C26.3083 9.71958 26.2739 9.75915 26.2526 9.80585L25.2166 12.0489L23.9586 9.65186H22.6816L24.6216 13.3299L24.4806 13.6409C24.4494 13.7068 24.4177 13.7724 24.3856 13.8379C24.3506 13.9119 24.2956 14.0209 24.2436 14.0779C24.0076 14.3369 23.4706 14.3309 23.3096 14.3309V14.9839C23.5236 14.9839 24.6936 15.1499 25.1756 13.9739L27.1786 9.65186H26.4976Z" fill="#393632"/>
<path fill-rule="evenodd" clip-rule="evenodd" d="M13.3537 8.574C13.3537 8.891 13.0637 9.148 12.7037 9.148C12.3457 9.148 12.0547 8.891 12.0547 8.574C12.0547 8.257 12.3447 8 12.7047 8C13.0637 8 13.3547 8.257 13.3547 8.574H13.3537Z" fill="#00A0E8"/>
<mask id="mask5_363_13856" style="mask-type:alpha" maskUnits="userSpaceOnUse" x="12" y="8" width="2" height="2">
<path d="M12.0547 8.574C12.0547 8.891 12.3447 9.148 12.7047 9.148C13.0637 9.148 13.3547 8.891 13.3547 8.574C13.3547 8.257 13.0637 8 12.7047 8C12.3447 8 12.0547 8.257 12.0547 8.574Z" fill="white"/>
</mask>
<g mask="url(#mask5_363_13856)">
<path fill-rule="evenodd" clip-rule="evenodd" d="M-10.4883 20.2948H30.4767V2.1748H-10.4883V20.2948Z" fill="#00A0E8"/>
<path fill-rule="evenodd" clip-rule="evenodd" d="M11.7031 9.49995H13.7071V7.64795H11.7031V9.50195V9.49995Z" fill="#00A0E8"/>
</g>
<path fill-rule="evenodd" clip-rule="evenodd" d="M31.4234 13.65H30.6934C30.6827 13.65 30.6721 13.6479 30.6623 13.6437C30.6525 13.6396 30.6435 13.6335 30.6361 13.6259C30.6286 13.6182 30.6228 13.6092 30.6189 13.5992C30.615 13.5893 30.6131 13.5787 30.6134 13.568V12.063C30.6134 12.0418 30.6049 12.0214 30.5899 12.0064C30.5749 11.9914 30.5546 11.983 30.5334 11.983H29.2094V13.649H28.4804C28.4592 13.649 28.4388 13.6406 28.4238 13.6256C28.4088 13.6106 28.4004 13.5902 28.4004 13.569V9.748C28.4002 9.73741 28.4022 9.7269 28.4062 9.71708C28.4101 9.70726 28.416 9.69832 28.4234 9.69078C28.4309 9.68325 28.4398 9.67727 28.4495 9.67318C28.4593 9.6691 28.4698 9.667 28.4804 9.667H29.2104V11.294H30.5334C30.5546 11.294 30.5749 11.2856 30.5899 11.2706C30.6049 11.2556 30.6134 11.2352 30.6134 11.214V9.748C30.6132 9.73741 30.6152 9.7269 30.6192 9.71708C30.6231 9.70726 30.629 9.69832 30.6364 9.69078C30.6439 9.68325 30.6528 9.67727 30.6625 9.67318C30.6723 9.6691 30.6828 9.667 30.6934 9.667H31.4234V13.65ZM35.6974 13.65H34.8124C34.7981 13.65 34.7841 13.6462 34.7718 13.639C34.7595 13.6318 34.7493 13.6215 34.7424 13.609L33.7144 11.837L33.1844 12.452V13.649H32.4664C32.4452 13.649 32.4248 13.6406 32.4098 13.6256C32.3948 13.6106 32.3864 13.5902 32.3864 13.569V9.748C32.3862 9.73741 32.3882 9.7269 32.3922 9.71708C32.3961 9.70726 32.402 9.69832 32.4094 9.69078C32.4169 9.68325 32.4258 9.67727 32.4355 9.67318C32.4453 9.6691 32.4558 9.667 32.4664 9.667H33.1854V11.289C33.1852 11.2973 33.1877 11.3055 33.1924 11.3123C33.1971 11.3192 33.2038 11.3244 33.2116 11.3273C33.2194 11.3302 33.2279 11.3305 33.236 11.3283C33.244 11.3261 33.2511 11.3215 33.2564 11.315L34.6044 9.695C34.612 9.68606 34.6215 9.67892 34.6322 9.67408C34.643 9.66924 34.6546 9.66683 34.6664 9.667H35.5994L34.2434 11.25L35.6974 13.65Z" fill="#00A0E8"/>
</g>
<mask id="mask6_363_13856" style="mask-type:luminance" maskUnits="userSpaceOnUse" x="49" y="0" width="39" height="24">
<path d="M87.7305 0H49.7305V24H87.7305V0Z" fill="white"/>
</mask>
<g mask="url(#mask6_363_13856)">
<path opacity="0.07" d="M84.7305 0H52.7305C51.0305 0 49.7305 1.3 49.7305 3V21C49.7305 22.7 51.1305 24 52.7305 24H84.7305C86.4305 24 87.7305 22.7 87.7305 21V3C87.7305 1.3 86.3305 0 84.7305 0Z" fill="black"/>
<path d="M84.7305 1C85.8305 1 86.7305 1.9 86.7305 3V21C86.7305 22.1 85.8305 23 84.7305 23H52.7305C51.6305 23 50.7305 22.1 50.7305 21V3C50.7305 1.9 51.6305 1 52.7305 1H84.7305Z" fill="#006FCF"/>
<path d="M58.7015 10.268L59.4755 12.144H57.9335L58.7015 10.268ZM74.7765 10.346H71.7995V11.173H74.7285V12.412H71.8055V13.334H74.7825V14.073L76.8595 11.828L74.7825 9.488L74.7765 10.346ZM60.7135 8.006H64.7085L65.5955 9.941L66.4175 8H76.7875L77.8655 9.19L78.9805 8H83.7435L80.2245 11.852L83.7075 15.68H78.8735L77.7955 14.49L76.6705 15.68H59.7605L59.2665 14.49H58.1365L57.6415 15.68H53.7305L57.0165 8H60.4465L60.7135 8.006ZM69.3765 9.084H67.1375L65.6375 12.62L64.0125 9.084H61.7905V13.894L59.7305 9.084H57.7375L55.3555 14.596H56.9105L57.4045 13.406H60.0005L60.4945 14.596H63.2145V10.661L64.9655 14.602H66.1555L67.8955 10.673V14.603H69.3535L69.3775 9.083L69.3765 9.084ZM78.7165 11.852L81.2475 9.084H79.4255L77.8245 10.81L76.2765 9.084H70.3825V14.602H76.1925L77.8065 12.864L79.3545 14.602H81.2295L78.7165 11.852Z" fill="white"/>
</g>
<mask id="mask7_363_13856" style="mask-type:luminance" maskUnits="userSpaceOnUse" x="98" y="0" width="39" height="24">
<path d="M136.73 0H98.7305V24H136.73V0Z" fill="white"/>
</mask>
<g mask="url(#mask7_363_13856)">
<path d="M133.118 0H102.344C102.215 0 102.087 0 101.959 0.00067947C101.851 0.00158543 101.743 0.00271788 101.635 0.00566225C101.4 0.012004 101.162 0.0260463 100.93 0.0677205C100.697 0.107648 100.471 0.182074 100.26 0.288548C99.8357 0.504411 99.4907 0.849374 99.2749 1.27378C99.1682 1.48497 99.0938 1.71095 99.054 1.94419C99.0119 2.17679 98.9981 2.41393 98.9918 2.64903C98.989 2.75697 98.9873 2.86493 98.9868 2.97291C98.9863 3.10065 98.9863 3.22884 98.9863 3.35726V20.6425C98.9863 20.7709 98.9863 20.8989 98.9868 21.0273C98.9875 21.1351 98.9888 21.2432 98.9918 21.3512C98.9981 21.5858 99.0121 21.8232 99.054 22.0556C99.0937 22.2888 99.1681 22.5148 99.2747 22.726C99.3818 22.9369 99.5217 23.1296 99.6891 23.2967C99.8563 23.4642 100.049 23.6041 100.26 23.7112C100.474 23.8206 100.694 23.8902 100.93 23.9325C101.162 23.974 101.4 23.988 101.635 23.9943C101.743 23.9968 101.851 23.9982 101.959 23.9989C102.087 23.9998 102.215 23.9998 102.344 23.9998H133.118C133.246 23.9998 133.374 23.9998 133.502 23.9989C133.61 23.9984 133.718 23.9968 133.826 23.9943C134.061 23.988 134.299 23.974 134.531 23.9325C134.765 23.8925 134.99 23.818 135.201 23.7112C135.626 23.4951 135.97 23.1502 136.187 22.726C136.296 22.5115 136.365 22.2918 136.407 22.0556C136.449 21.8232 136.463 21.5858 136.469 21.3512C136.472 21.2432 136.474 21.1351 136.474 21.0273C136.475 20.8989 136.475 20.7709 136.475 20.6425V3.35749C136.475 3.22907 136.475 3.10087 136.474 2.97268C136.474 2.86478 136.472 2.75689 136.469 2.64903C136.463 2.41393 136.449 2.17679 136.407 1.94419C136.368 1.71091 136.293 1.4849 136.187 1.27378C135.971 0.849448 135.626 0.504513 135.201 0.288548C134.99 0.182184 134.764 0.107836 134.531 0.067947C134.299 0.0260463 134.061 0.0122305 133.826 0.00588874C133.718 0.00314533 133.61 0.00148432 133.502 0.000905959C133.374 0 133.246 0 133.118 0Z" fill="black"/>
<path d="M133.119 0.799805L133.497 0.800484C133.6 0.801164 133.702 0.802296 133.805 0.805014C133.985 0.809997 134.195 0.819736 134.391 0.854842C134.56 0.885418 134.703 0.931848 134.84 1.00161C135.114 1.1408 135.336 1.36345 135.475 1.63736C135.544 1.77326 135.59 1.91504 135.621 2.08649C135.656 2.27992 135.666 2.49033 135.67 2.67084C135.673 2.77276 135.675 2.87468 135.675 2.97886C135.676 3.10502 135.676 3.23095 135.676 3.35733V20.6426C135.676 20.769 135.676 20.8949 135.675 21.0235C135.675 21.1255 135.673 21.2274 135.671 21.3293C135.666 21.5096 135.656 21.72 135.621 21.9157C135.595 22.0713 135.546 22.2222 135.474 22.363C135.335 22.637 135.113 22.8597 134.839 22.9988C134.703 23.0681 134.56 23.1145 134.392 23.1448C134.193 23.1804 133.974 23.1901 133.809 23.1947C133.706 23.1969 133.603 23.1985 133.497 23.199C133.371 23.1999 133.245 23.1999 133.119 23.1999H102.339C102.215 23.1999 102.09 23.1999 101.963 23.199C101.862 23.1985 101.76 23.1972 101.658 23.1949C101.489 23.1904 101.27 23.1804 101.072 23.1451C100.916 23.119 100.764 23.0694 100.623 22.9979C100.487 22.9288 100.363 22.8386 100.255 22.7306C100.147 22.623 100.057 22.4989 99.9885 22.363C99.9173 22.2214 99.868 22.0698 99.8421 21.9134C99.8068 21.718 99.7968 21.5085 99.7923 21.3295C99.7898 21.2272 99.7882 21.1249 99.7878 21.0226L99.7871 20.7221V3.27806L99.7876 2.97796C99.788 2.8755 99.7895 2.77304 99.7921 2.67061C99.7971 2.49123 99.8068 2.28173 99.8424 2.08468C99.8682 1.9286 99.9176 1.77733 99.9887 1.63601C100.058 1.50056 100.147 1.3769 100.256 1.26841C100.364 1.16049 100.488 1.07029 100.624 1.00115C100.765 0.930167 100.916 0.880844 101.072 0.854842C101.268 0.819736 101.478 0.809997 101.658 0.805014C101.76 0.802296 101.863 0.801164 101.965 0.800484L102.344 0.799805H133.119Z" fill="white"/>
<path d="M108.841 8.10171C109.159 7.70422 109.375 7.17039 109.318 6.625C108.853 6.6481 108.285 6.93189 107.956 7.32984C107.661 7.67048 107.4 8.22651 107.468 8.74902C107.99 8.79432 108.512 8.48811 108.841 8.10171Z" fill="black"/>
<path d="M109.311 8.85119C108.552 8.80589 107.908 9.28152 107.545 9.28152C107.183 9.28152 106.628 8.87384 106.028 8.88493C105.248 8.89626 104.523 9.33791 104.127 10.04C103.312 11.4443 103.912 13.528 104.704 14.6717C105.089 15.238 105.553 15.8608 106.164 15.8384C106.742 15.8158 106.968 15.4647 107.67 15.4647C108.371 15.4647 108.575 15.8384 109.186 15.8271C109.82 15.8157 110.216 15.2608 110.601 14.6946C111.043 14.0491 111.223 13.4263 111.235 13.3923C111.223 13.381 110.012 12.9165 110.001 11.5235C109.99 10.3571 110.952 9.80222 110.997 9.76802C110.454 8.96443 109.605 8.87384 109.311 8.85119Z" fill="black"/>
<path d="M116.872 7.27295C118.521 7.27295 119.669 8.40925 119.669 10.0635C119.669 11.7237 118.497 12.8659 116.831 12.8659H115.006V15.7686H113.688V7.27295H116.872ZM115.006 11.759H116.519C117.667 11.759 118.321 11.1409 118.321 10.0694C118.321 8.99812 117.667 8.38569 116.525 8.38569H115.006V11.759Z" fill="black"/>
<path d="M119.996 14.008C119.996 12.9188 120.826 12.2949 122.357 12.2006L123.999 12.1005V11.6294C123.999 10.9409 123.546 10.564 122.74 10.564C122.074 10.564 121.591 10.9053 121.492 11.4292H120.302C120.338 10.3285 121.374 9.52783 122.775 9.52783C124.282 9.52783 125.265 10.3167 125.265 11.5413V15.7683H124.047V14.7498H124.017C123.67 15.415 122.904 15.8329 122.074 15.8329C120.85 15.8329 119.996 15.1031 119.996 14.008ZM123.999 13.4606V12.9836L122.533 13.0778C121.709 13.1308 121.28 13.4368 121.28 13.9725C121.28 14.4907 121.727 14.8263 122.427 14.8263C123.322 14.8263 123.999 14.2551 123.999 13.4606Z" fill="black"/>
<path d="M126.386 18.0408V17.0225C126.468 17.034 126.668 17.0458 126.774 17.0458C127.357 17.0458 127.687 16.7989 127.887 16.1627L128.005 15.7861L125.773 9.60449H127.151L128.705 14.6203H128.735L130.289 9.60449H131.631L129.318 16.098C128.788 17.5876 128.181 18.0763 126.898 18.0763C126.798 18.0763 126.474 18.0646 126.386 18.0408Z" fill="black"/>
</g>
<mask id="mask8_363_13856" style="mask-type:luminance" maskUnits="userSpaceOnUse" x="147" y="0" width="39" height="24">
<path d="M185.73 0H147.73V24H185.73V0Z" fill="white"/>
</mask>
<g mask="url(#mask8_363_13856)">
<path opacity="0.07" d="M182.73 0H150.73C149.03 0 147.73 1.3 147.73 3V21C147.73 22.7 149.13 24 150.73 24H182.73C184.43 24 185.73 22.7 185.73 21V3C185.73 1.3 184.33 0 182.73 0Z" fill="black"/>
<path d="M182.73 1C183.83 1 184.73 1.9 184.73 3V21C184.73 22.1 183.83 23 182.73 23H150.73C149.63 23 148.73 22.1 148.73 21V3C148.73 1.9 149.63 1 150.73 1H182.73Z" fill="white"/>
<path d="M151.3 7.16004H149.73V12.66H151.3C152.13 12.66 152.73 12.46 153.26 12.03C153.89 11.51 154.26 10.73 154.26 9.92004C154.25 8.29004 153.04 7.16004 151.3 7.16004ZM152.56 11.3C152.22 11.6 151.79 11.74 151.09 11.74H150.8V8.10004H151.09C151.78 8.10004 152.2 8.22004 152.56 8.54004C152.93 8.87004 153.15 9.38004 153.15 9.91004C153.15 10.44 152.93 10.97 152.56 11.3ZM154.75 7.16004H155.82V12.66H154.75V7.16004ZM158.44 9.27004C157.8 9.03004 157.61 8.87004 157.61 8.58004C157.61 8.23004 157.95 7.97004 158.41 7.97004C158.73 7.97004 159 8.10004 159.27 8.42004L159.83 7.69004C159.37 7.29004 158.82 7.08004 158.21 7.08004C157.24 7.08004 156.49 7.76004 156.49 8.66004C156.49 9.42004 156.84 9.81004 157.84 10.17C158.26 10.32 158.47 10.42 158.58 10.48C158.79 10.62 158.9 10.82 158.9 11.05C158.9 11.5 158.55 11.83 158.07 11.83C157.56 11.83 157.15 11.57 156.9 11.1L156.21 11.77C156.7 12.5 157.3 12.82 158.11 12.82C159.22 12.82 160.01 12.08 160.01 11.01C160.03 10.12 159.66 9.72004 158.44 9.27004ZM160.36 9.92004C160.36 11.54 161.63 12.79 163.26 12.79C163.72 12.79 164.12 12.7 164.6 12.47V11.21C164.17 11.64 163.79 11.81 163.31 11.81C162.23 11.81 161.46 11.03 161.46 9.91004C161.46 8.85004 162.25 8.02004 163.26 8.02004C163.77 8.02004 164.16 8.20004 164.6 8.64004V7.38004C164.13 7.14004 163.74 7.04004 163.28 7.04004C161.67 7.04004 160.36 8.32004 160.36 9.92004ZM173.12 10.86L171.65 7.16004H170.48L172.81 12.8H173.39L175.76 7.16004H174.6L173.12 10.86ZM176.25 12.66H179.29V11.73H177.32V10.25H179.22V9.32004H177.32V8.10004H179.29V7.16004H176.25V12.66ZM183.54 8.79004C183.54 7.76004 182.83 7.17004 181.59 7.17004H180V12.67H181.07V10.46H181.21L182.69 12.67H184.01L182.28 10.35C183.09 10.18 183.54 9.63004 183.54 8.79004ZM181.38 9.70004H181.07V8.03004H181.4C182.07 8.03004 182.43 8.31004 182.43 8.85004C182.43 9.40004 182.07 9.70004 181.38 9.70004Z" fill="#231F20"/>
<path d="M167.89 12.86C168.667 12.86 169.413 12.5512 169.962 12.0016C170.512 11.4519 170.821 10.7064 170.821 9.92905C170.821 9.1517 170.512 8.40619 169.962 7.85652C169.413 7.30685 168.667 6.99805 167.89 6.99805C167.113 6.99805 166.367 7.30685 165.817 7.85652C165.268 8.40619 164.959 9.1517 164.959 9.92905C164.959 10.7064 165.268 11.4519 165.817 12.0016C166.367 12.5512 167.113 12.86 167.89 12.86Z" fill="url(#paint0_linear_363_13856)"/>
<path opacity="0.65" d="M167.89 12.86C168.667 12.86 169.413 12.5512 169.962 12.0016C170.512 11.4519 170.821 10.7064 170.821 9.92905C170.821 9.1517 170.512 8.40619 169.962 7.85652C169.413 7.30685 168.667 6.99805 167.89 6.99805C167.113 6.99805 166.367 7.30685 165.817 7.85652C165.268 8.40619 164.959 9.1517 164.959 9.92905C164.959 10.7064 165.268 11.4519 165.817 12.0016C166.367 12.5512 167.113 12.86 167.89 12.86Z" fill="url(#paint1_linear_363_13856)"/>
<path d="M184.301 7.50596C184.301 7.40596 184.231 7.35596 184.121 7.35596H183.961V7.83596H184.081V7.64596L184.221 7.83596H184.361L184.201 7.63596C184.261 7.62596 184.301 7.57596 184.301 7.50596ZM184.101 7.57596H184.081V7.44596H184.101C184.161 7.44596 184.191 7.46596 184.191 7.50596C184.191 7.55596 184.161 7.57596 184.101 7.57596Z" fill="#231F20"/>
<path d="M184.141 7.17578C183.911 7.17578 183.721 7.36578 183.721 7.59578C183.721 7.82578 183.911 8.01578 184.141 8.01578C184.371 8.01578 184.561 7.82578 184.561 7.59578C184.561 7.36578 184.371 7.17578 184.141 7.17578ZM184.141 7.94578C183.961 7.94578 183.801 7.79578 183.801 7.59578C183.801 7.40578 183.951 7.24578 184.141 7.24578C184.321 7.24578 184.471 7.40578 184.471 7.59578C184.471 7.78578 184.321 7.94578 184.141 7.94578Z" fill="#231F20"/>
<path d="M184.731 12.9839C184.731 12.9839 174.821 19.8729 156.707 22.9999H182.73C183.258 22.9999 183.764 22.7914 184.139 22.4198C184.513 22.0481 184.726 21.5435 184.73 21.0159L184.754 17.9959L184.731 12.9839Z" fill="#F48120"/>
</g>
<mask id="mask9_363_13856" style="mask-type:luminance" maskUnits="userSpaceOnUse" x="196" y="0" width="39" height="24">
<path d="M234.73 0H196.73V24H234.73V0Z" fill="white"/>
</mask>
<g mask="url(#mask9_363_13856)">
<path opacity="0.07" d="M231.73 0H199.73C198.03 0 196.73 1.3 196.73 3V21C196.73 22.7 198.13 24 199.73 24H231.73C233.43 24 234.73 22.7 234.73 21V3C234.73 1.3 233.33 0 231.73 0Z" fill="black"/>
<path d="M231.73 1C232.83 1 233.73 1.9 233.73 3V21C233.73 22.1 232.83 23 231.73 23H199.73C198.63 23 197.73 22.1 197.73 21V3C197.73 1.9 198.63 1 199.73 1H231.73Z" fill="white"/>
<path fill-rule="evenodd" clip-rule="evenodd" d="M205.02 5.67188H205.055V6.54588H205.02C202.764 6.54588 200.855 8.00587 200.22 10.0179L199.371 9.75288C200.121 7.38788 202.366 5.67188 205.02 5.67188Z" fill="url(#paint2_linear_363_13856)"/>
<path fill-rule="evenodd" clip-rule="evenodd" d="M205.055 6.54588V5.67188H205.02C207.681 5.67188 209.933 7.39988 210.675 9.77688L209.827 10.0429C209.203 8.02888 207.304 6.56088 205.055 6.54588Z" fill="url(#paint3_linear_363_13856)"/>
<path fill-rule="evenodd" clip-rule="evenodd" d="M207.973 15.478L208.496 16.186C207.481 16.9096 206.266 17.2971 205.02 17.294C203.793 17.2972 202.595 16.9218 201.59 16.219L202.114 15.511C202.934 16.084 203.937 16.421 205.02 16.421C206.124 16.421 207.144 16.071 207.973 15.478Z" fill="url(#paint4_linear_363_13856)"/>
<path fill-rule="evenodd" clip-rule="evenodd" d="M199.373 9.75293L200.221 10.0179C200.072 10.4919 199.996 10.986 199.996 11.4829C199.996 13.1459 200.832 14.6169 202.115 15.5109L201.592 16.2189C200.139 15.2019 199.175 13.5559 199.109 11.6869V11.2799C199.128 10.7499 199.219 10.2379 199.373 9.75293Z" fill="url(#paint5_linear_363_13856)"/>
<path fill-rule="evenodd" clip-rule="evenodd" d="M210.936 11.4829C210.936 13.4169 209.976 15.1289 208.496 16.1859L207.973 15.4789C208.612 15.0268 209.134 14.4281 209.495 13.7328C209.855 13.0376 210.044 12.2661 210.046 11.4829C210.046 10.9809 209.97 10.4959 209.828 10.0399L210.676 9.77393C210.846 10.3139 210.936 10.8879 210.936 11.4839V11.4829Z" fill="url(#paint6_linear_363_13856)"/>
<path fill-rule="evenodd" clip-rule="evenodd" d="M207.791 12.2181C207.791 11.9101 207.576 11.7721 207.099 11.7721H205.924V12.6621H207.099C207.584 12.6621 207.791 12.5291 207.791 12.2181ZM206.934 10.3521H205.924V11.2421H206.934C207.391 11.2421 207.598 11.1041 207.598 10.7991C207.598 10.4931 207.388 10.3521 206.934 10.3521ZM208.408 12.2741C208.408 12.8681 207.934 13.2061 207.098 13.2061H205.371C205.341 13.2061 205.321 13.1861 205.321 13.1571V9.85708C205.321 9.82808 205.341 9.80908 205.371 9.80908H206.946C207.759 9.80908 208.206 10.1221 208.206 10.6871C208.206 11.0221 208.056 11.2911 207.623 11.4201C208.171 11.5341 208.393 11.8571 208.408 12.2741ZM204.603 9.85708V10.3181C204.603 10.3481 204.583 10.3671 204.553 10.3671H202.553V11.2281H204.213C204.243 11.2281 204.262 11.2481 204.262 11.2771V11.7371C204.262 11.7671 204.242 11.7871 204.212 11.7871H202.554V13.1571C202.554 13.1871 202.534 13.2061 202.504 13.2061H202.001C201.971 13.2061 201.951 13.1861 201.951 13.1571V9.85708C201.951 9.82808 201.971 9.80908 202.001 9.80908H204.554C204.584 9.80908 204.603 9.82908 204.603 9.85708Z" fill="#64717D"/>
<path fill-rule="evenodd" clip-rule="evenodd" d="M227.945 9.81989C228.435 11.3309 228.998 12.8173 229.633 14.2739L231.183 9.81989H232.422L230.201 15.5739C229.917 16.3109 229.58 16.8789 229.19 17.2789C228.8 17.6789 228.277 17.8789 227.622 17.8789C227.459 17.8789 227.305 17.8659 227.162 17.8399V16.8349C227.282 16.8539 227.389 16.8629 227.479 16.8629C227.877 16.8629 228.201 16.7529 228.451 16.5309C228.701 16.3099 228.921 15.9849 229.11 15.5569C228.64 14.6307 228.203 13.6888 227.798 12.7329C227.389 11.7696 226.999 10.7984 226.628 9.81989H227.945ZM223.345 9.68589C224.041 9.68589 224.601 9.88289 225.025 10.2769C225.45 10.6719 225.662 11.2619 225.662 12.0469V15.3999H224.572V14.4899C224.352 14.8179 224.069 15.0699 223.725 15.2469C223.359 15.4282 222.956 15.5191 222.549 15.5119C221.95 15.5119 221.485 15.3599 221.154 15.0569C220.823 14.7539 220.657 14.3539 220.657 13.8599C220.657 13.3689 220.844 12.9569 221.217 12.6259C221.59 12.2959 222.185 12.1289 223.003 12.1289H224.548V12.1129C224.548 11.1749 224.109 10.7059 223.231 10.7059C222.863 10.7059 222.554 10.7709 222.301 10.9019C222.05 11.0319 221.846 11.2139 221.691 11.4489L220.913 10.8289C221.155 10.4609 221.474 10.1779 221.87 9.98089C222.29 9.77797 222.753 9.67659 223.22 9.68489H223.344L223.345 9.68589ZM216.891 7.58789C217.887 7.58789 218.631 7.82089 219.123 8.28789C219.615 8.75489 219.862 9.38789 219.862 10.1879C219.862 10.9849 219.615 11.6179 219.123 12.0859C218.631 12.5549 217.887 12.7889 216.891 12.7889H214.755V15.4009H213.561V7.58789H216.891ZM224.548 13.0069H223.048C222.602 13.0069 222.283 13.0769 222.091 13.2169C221.999 13.28 221.926 13.3648 221.876 13.4636C221.826 13.5624 221.801 13.6722 221.805 13.7829C221.805 14.2729 222.135 14.5189 222.799 14.5189C223.238 14.5189 223.603 14.4219 223.895 14.2259C224.187 14.0309 224.405 13.7659 224.548 13.4309V13.0069ZM216.778 8.68089H214.755V11.6949H216.777C217.425 11.6949 217.897 11.5699 218.195 11.3179C218.492 11.0679 218.64 10.6909 218.64 10.1879C218.64 9.68589 218.492 9.30889 218.195 9.05789C217.897 8.80689 217.426 8.68089 216.778 8.68089Z" fill="#1B2529"/>
</g>
<mask id="mask10_363_13856" style="mask-type:luminance" maskUnits="userSpaceOnUse" x="245" y="0" width="39" height="24">
<path d="M283.73 0H245.73V24H283.73V0Z" fill="white"/>
</mask>
<g mask="url(#mask10_363_13856)">
<path opacity="0.07" d="M280.73 0H248.73C247.03 0 245.73 1.3 245.73 3V21C245.73 22.7 247.13 24 248.73 24H280.73C282.43 24 283.73 22.7 283.73 21V3C283.73 1.3 282.33 0 280.73 0Z" fill="black"/>
<path d="M280.73 1C281.83 1 282.73 1.9 282.73 3V21C282.73 22.1 281.83 23 280.73 23H248.73C247.63 23 246.73 22.1 246.73 21V3C246.73 1.9 247.63 1 248.73 1H280.73Z" fill="white"/>
<path d="M260.73 19C264.596 19 267.73 15.866 267.73 12C267.73 8.13401 264.596 5 260.73 5C256.864 5 253.73 8.13401 253.73 12C253.73 15.866 256.864 19 260.73 19Z" fill="#EB001B"/>
<path d="M268.73 19C272.596 19 275.73 15.866 275.73 12C275.73 8.13401 272.596 5 268.73 5C264.864 5 261.73 8.13401 261.73 12C261.73 15.866 264.864 19 268.73 19Z" fill="#F79E1B"/>
<path d="M267.73 11.9998C267.73 9.5998 266.53 7.4998 264.73 6.2998C262.93 7.5998 261.73 9.6998 261.73 11.9998C261.73 14.2998 262.93 16.4998 264.73 17.6998C266.53 16.4998 267.73 14.3998 267.73 11.9998Z" fill="#FF5F00"/>
</g>
<mask id="mask11_363_13856" style="mask-type:luminance" maskUnits="userSpaceOnUse" x="294" y="0" width="39" height="24">
<path d="M332.73 0H294.73V24H332.73V0Z" fill="white"/>
</mask>
<g mask="url(#mask11_363_13856)">
<path opacity="0.07" d="M329.73 0H297.73C296.03 0 294.73 1.3 294.73 3V21C294.73 22.7 296.13 24 297.73 24H329.73C331.43 24 332.73 22.7 332.73 21V3C332.73 1.3 331.33 0 329.73 0Z" fill="black"/>
<path d="M329.73 1C330.83 1 331.73 1.9 331.73 3V21C331.73 22.1 330.83 23 329.73 23H297.73C296.63 23 295.73 22.1 295.73 21V3C295.73 1.9 296.63 1 297.73 1H329.73Z" fill="white"/>
<path d="M323.03 10.1H322.73C322.33 11.1 322.03 11.6 321.73 13.1H323.63C323.33 11.6 323.33 10.9 323.03 10.1ZM325.93 16H324.23C324.13 16 324.13 16 324.03 15.9L323.83 15L323.73 14.8H321.33C321.23 14.8 321.13 14.8 321.13 15L320.83 15.9C320.83 16 320.73 16 320.73 16H318.63L318.83 15.5L321.73 8.7C321.73 8.2 322.03 8 322.53 8H324.03C324.13 8 324.23 8 324.23 8.2L325.63 14.7C325.73 15.1 325.83 15.4 325.83 15.8C325.93 15.9 325.93 15.9 325.93 16ZM312.53 15.7L312.93 13.9C313.03 13.9 313.13 14 313.13 14C313.83 14.3 314.53 14.5 315.23 14.4C315.43 14.4 315.73 14.3 315.93 14.2C316.43 14 316.43 13.5 316.03 13.1C315.83 12.9 315.53 12.8 315.23 12.6C314.83 12.4 314.43 12.2 314.13 11.9C312.93 10.9 313.33 9.5 314.03 8.8C314.63 8.4 314.93 8 315.73 8C316.93 8 318.23 8 318.83 8.2H318.93C318.83 8.8 318.73 9.3 318.53 9.9C318.03 9.7 317.53 9.5 317.03 9.5C316.73 9.5 316.43 9.5 316.13 9.6C315.93 9.6 315.83 9.7 315.73 9.8C315.53 10 315.53 10.3 315.73 10.5L316.23 10.9C316.63 11.1 317.03 11.3 317.33 11.5C317.83 11.8 318.33 12.3 318.43 12.9C318.63 13.8 318.33 14.6 317.53 15.2C317.03 15.6 316.83 15.8 316.13 15.8C314.73 15.8 313.63 15.9 312.73 15.6C312.63 15.8 312.63 15.8 312.53 15.7ZM309.03 16C309.13 15.3 309.13 15.3 309.23 15C309.73 12.8 310.23 10.5 310.63 8.3C310.73 8.1 310.73 8 310.93 8H312.73C312.53 9.2 312.33 10.1 312.03 11.2C311.73 12.7 311.43 14.2 311.03 15.7C311.03 15.9 310.93 15.9 310.73 15.9M299.73 8.2C299.73 8.1 299.93 8 300.03 8H303.43C303.93 8 304.33 8.3 304.43 8.8L305.33 13.2C305.33 13.3 305.33 13.3 305.43 13.4C305.43 13.3 305.53 13.3 305.53 13.3L307.63 8.2C307.53 8.1 307.63 8 307.73 8H309.83C309.83 8.1 309.83 8.1 309.73 8.2L306.63 15.5C306.53 15.7 306.53 15.8 306.43 15.9C306.33 16 306.13 15.9 305.93 15.9H304.43C304.33 15.9 304.23 15.9 304.23 15.7L302.63 9.5C302.43 9.3 302.13 9 301.73 8.9C301.13 8.6 300.03 8.4 299.83 8.4L299.73 8.2Z" fill="#142688"/>
</g>
<defs>
<linearGradient id="paint0_linear_363_13856" x1="169.387" y1="12.275" x2="167.362" y2="9.10405" gradientUnits="userSpaceOnUse">
<stop stop-color="#F89F20"/>
<stop offset="0.25" stop-color="#F79A20"/>
<stop offset="0.533" stop-color="#F68D20"/>
<stop offset="0.62" stop-color="#F58720"/>
<stop offset="0.723" stop-color="#F48120"/>
<stop offset="1" stop-color="#F37521"/>
</linearGradient>
<linearGradient id="paint1_linear_363_13856" x1="169.068" y1="12.232" x2="166.108" y2="6.44605" gradientUnits="userSpaceOnUse">
<stop stop-color="#F58720"/>
<stop offset="0.359" stop-color="#E16F27"/>
<stop offset="0.703" stop-color="#D4602C"/>
<stop offset="0.982" stop-color="#D05B2E"/>
</linearGradient>
<linearGradient id="paint2_linear_363_13856" x1="205.055" y1="6.80287" x2="200.558" y2="10.1209" gradientUnits="userSpaceOnUse">
<stop stop-color="#24D365"/>
<stop offset="1" stop-color="#139DBD"/>
</linearGradient>
<linearGradient id="paint3_linear_363_13856" x1="205.02" y1="6.77387" x2="209.529" y2="10.1109" gradientUnits="userSpaceOnUse">
<stop stop-color="#23D068"/>
<stop offset="0.52" stop-color="#EACD36"/>
<stop offset="1" stop-color="#FF6C5C"/>
</linearGradient>
<linearGradient id="paint4_linear_363_13856" x1="201.851" y1="15.876" x2="208.226" y2="15.876" gradientUnits="userSpaceOnUse">
<stop stop-color="#266FF3"/>
<stop offset="1" stop-color="#C439D6"/>
</linearGradient>
<linearGradient id="paint5_linear_363_13856" x1="200.866" y1="15.8939" x2="199.012" y2="10.3899" gradientUnits="userSpaceOnUse">
<stop stop-color="#266FF3"/>
<stop offset="1" stop-color="#149FBA"/>
</linearGradient>
<linearGradient id="paint6_linear_363_13856" x1="209.63" y1="9.91293" x2="207.772" y2="15.3939" gradientUnits="userSpaceOnUse">
<stop stop-color="#FF6C5C"/>
<stop offset="1" stop-color="#C439D6"/>
</linearGradient>
</defs>
</svg>
